<?xml version="1.0" standalone="no"?>
<!DOCTYPE svg PUBLIC "-//W3C//DTD SVG 20010904//EN"
 "http://www.w3.org/TR/2001/REC-SVG-20010904/DTD/svg10.dtd">
<svg version="1.0" xmlns="http://www.w3.org/2000/svg"
 width="358" height="346" viewBox="0 0 358.000000 346.000000"
 preserveAspectRatio="xMidYMid meet">
<style>
    @media (prefers-color-scheme: light) {
      .background { fill: black; }
      .foreground { fill: white; }
    }
    @media (prefers-color-scheme: dark) {
      .background { fill: white; }
      .foreground { fill: black; }
    }
  </style>
  <rect class="background" width="358" height="346" rx="90" />
<g class="foreground" transform="translate(0.000000,346.000000) scale(0.100000,-0.100000)"
stroke="none">
<path d="M2222 3362 c-215 -77 -277 -346 -117 -507 168 -167 468 -79 515 152
48 231 -178 433 -398 355z m169 -221 c48 -49 38 -125 -21 -156 -46 -24 -78
-19 -116 19 -45 45 -47 95 -5 137 23 23 38 29 71 29 33 0 48 -6 71 -29z"/>
<path d="M1925 2731 c-257 -141 -452 -317 -608 -551 -96 -145 -131 -222 -131
-286 3 -146 136 -285 477 -494 l47 -30 0 -295 0 -296 24 -24 c46 -46 109 -45
152 2 l24 26 0 338 c0 241 -3 346 -12 364 -7 15 -30 36 -52 47 -79 39 -206
119 -206 129 0 31 143 221 249 332 45 48 200 177 253 211 l27 18 85 -78 c170
-155 395 -294 477 -294 56 0 99 42 99 97 -1 52 -21 74 -113 122 -268 139 -456
324 -578 571 -43 86 -55 104 -84 116 -47 19 -51 19 -130 -25z m80 -277 c20
-36 33 -69 29 -73 -5 -4 -40 -31 -79 -61 -114 -87 -204 -169 -283 -260 -68
-78 -185 -236 -195 -263 -6 -16 -50 25 -72 67 -17 31 -17 33 5 76 75 147 229
337 356 440 66 53 190 140 200 140 1 0 19 -30 39 -66z"/>
<path d="M243 2249 c-43 -12 -66 -49 -65 -102 1 -34 7 -47 32 -69 l30 -28 335
0 c188 0 345 4 359 10 30 11 56 57 56 98 0 40 -33 79 -78 92 -46 13 -624 12
-669 -1z"/>
<path d="M353 1843 c-39 -8 -73 -52 -73 -95 0 -50 13 -74 50 -93 24 -12 84
-15 355 -15 347 0 370 3 395 49 20 38 12 89 -19 123 l-29 33 -329 1 c-180 1
-338 0 -350 -3z"/>
<path d="M2564 1516 c-303 -79 -508 -310 -543 -613 -10 -84 2 -220 25 -289 68
-207 222 -375 416 -455 98 -40 181 -53 312 -46 192 9 340 79 480 228 128 136
187 286 187 477 0 355 -229 633 -580 707 -100 21 -190 18 -297 -9z m289 -201
c187 -49 328 -192 372 -377 64 -270 -100 -539 -369 -608 -99 -25 -152 -25
-250 0 -137 35 -242 114 -316 236 -116 192 -82 456 79 614 130 126 317 179
484 135z"/>
<path d="M2702 918 c-20 -5 -40 -21 -53 -41 -60 -97 62 -205 149 -132 38 32
48 72 29 118 -22 51 -66 71 -125 55z"/>
<path d="M458 1433 c-63 -10 -101 -109 -60 -159 34 -43 46 -44 433 -44 l373 0
50 -52 c191 -198 193 -502 5 -703 -92 -98 -240 -164 -370 -165 -63 0 -190 34
-251 67 -110 60 -209 190 -243 318 -19 75 -19 184 0 255 23 86 20 117 -16 151
-48 45 -128 33 -157 -23 -43 -84 -57 -309 -27 -430 58 -229 248 -433 471 -507
93 -31 269 -39 374 -17 265 55 495 286 550 552 18 86 14 237 -9 325 -35 136
-114 266 -220 361 -90 81 -71 78 -498 77 -208 -1 -390 -4 -405 -6z"/>
<path d="M864 918 c-42 -11 -65 -39 -71 -87 -5 -37 -2 -44 31 -77 33 -33 41
-36 77 -31 47 6 68 21 85 62 16 39 8 78 -22 109 -29 28 -58 35 -100 24z"/>
</g>
</svg>
