<?xml version="1.0" standalone="no"?>
<!DOCTYPE svg PUBLIC "-//W3C//DTD SVG 20010904//EN"
 "http://www.w3.org/TR/2001/REC-SVG-20010904/DTD/svg10.dtd">
<svg version="1.0" xmlns="http://www.w3.org/2000/svg"  style="background-color:#ffffff"
 width="616.000000pt" height="616.000000pt" viewBox="0 0 616.000000 616.000000"
 preserveAspectRatio="xMidYMid meet">
<metadata>
Created by potrace 1.15, written by Peter Selinger 2001-2017
</metadata>
<g transform="translate(0.000000,616.000000) scale(0.100000,-0.100000)"
fill="#000000" stroke="none">
<path d="M3925 4674 c-192 -41 -359 -81 -372 -89 -88 -58 -65 -198 36 -218 21
-5 126 16 323 63 161 37 296 65 299 62 3 -4 43 -142 89 -307 45 -165 85 -303
87 -307 2 -5 -445 -8 -995 -8 l-999 0 -53 178 c-29 97 -61 192 -71 210 -20 34
-15 43 8 15 13 -17 14 -17 11 2 -2 15 -11 20 -33 21 -17 0 -41 4 -53 8 -54 18
-407 72 -417 64 -5 -4 -22 -17 -37 -29 -31 -23 -54 -85 -44 -122 3 -14 18 -39
32 -56 14 -17 21 -31 16 -31 -6 0 -20 11 -30 25 -20 25 -21 25 -27 5 -4 -12
-5 -23 -3 -25 2 -2 29 -6 61 -9 31 -3 89 -14 129 -25 40 -10 96 -22 123 -25
28 -4 56 -10 61 -14 6 -4 30 -69 53 -145 l42 -139 -61 -81 c-33 -45 -70 -102
-82 -127 -19 -41 -20 -48 -7 -84 33 -95 166 -115 223 -34 l15 21 11 -27 c5
-15 10 -30 10 -33 0 -3 79 -266 175 -584 96 -318 175 -583 175 -589 0 -6 -47
-10 -130 -10 -149 0 -135 -12 -144 120 -11 151 -91 387 -148 435 -52 44 -144
28 -182 -30 -26 -39 -22 -91 13 -172 69 -161 90 -361 55 -531 -35 -173 -222
-423 -413 -551 -148 -100 -285 -144 -451 -143 -285 1 -538 128 -708 357 -91
124 -144 260 -163 424 -18 145 1 264 71 455 21 57 21 61 5 103 -25 64 -68 103
-115 103 -56 0 -92 -35 -131 -128 -127 -304 -116 -649 31 -942 213 -423 670
-674 1130 -621 141 17 235 43 356 101 129 61 208 114 306 209 164 156 243 293
324 559 2 9 63 12 256 12 179 1 259 4 275 13 12 7 367 338 789 737 422 399
784 740 805 757 l37 33 42 -152 c23 -84 44 -158 47 -165 4 -10 -8 -13 -45 -13
-63 0 -96 -12 -127 -46 -21 -23 -25 -37 -25 -91 l0 -65 -31 26 c-58 50 -125
32 -203 -54 -131 -147 -226 -347 -262 -555 -22 -120 -14 -348 14 -455 55 -207
141 -365 279 -510 163 -172 344 -275 582 -331 100 -24 323 -29 431 -9 358 65
665 295 821 615 129 266 152 536 70 830 -73 260 -268 507 -519 654 -79 46
-190 91 -227 91 -39 0 -78 -28 -95 -70 l-12 -30 -193 0 -192 0 -57 200 c-31
110 -56 204 -56 210 0 6 99 10 280 10 299 0 334 5 362 49 7 12 23 21 35 21 13
0 23 5 23 10 0 6 -12 10 -26 10 -22 0 -25 3 -20 23 3 12 6 34 6 49 0 21 4 25
20 21 14 -4 20 0 20 11 0 9 -8 16 -20 16 -16 0 -20 7 -20 34 0 44 9 66 26 66
8 0 14 5 14 10 0 6 -7 10 -15 10 -11 0 -15 12 -15 50 0 38 4 50 15 50 8 0 15
7 15 15 0 8 -4 15 -10 15 -5 0 -10 23 -10 51 0 31 4 48 10 44 6 -3 10 0 10 9
0 8 -5 16 -11 18 -7 2 -8 19 -1 54 13 77 3 133 -31 158 -27 20 -40 21 -383 24
-443 3 -436 5 -437 -127 0 -31 3 -78 7 -106 4 -27 5 -47 2 -44 -3 3 -37 116
-75 252 -39 135 -77 259 -86 276 -19 37 -62 61 -107 60 -18 -1 -190 -35 -383
-75z m275 -1063 c0 -9 -1284 -1222 -1322 -1250 -11 -7 -21 -11 -22 -10 -9 10
-382 1255 -379 1262 6 10 1723 9 1723 -2z m1441 -788 c167 -173 258 -445 230
-680 -16 -130 -35 -197 -90 -308 -89 -179 -219 -309 -396 -394 -121 -58 -191
-78 -320 -90 -378 -36 -745 191 -888 550 -46 115 -60 194 -61 329 0 227 70
406 234 603 l40 49 0 -51 c0 -28 -4 -51 -10 -51 -5 0 -10 -9 -10 -20 0 -12 7
-20 16 -20 15 0 16 -12 12 -95 -3 -52 -1 -95 3 -95 5 0 9 -31 9 -70 0 -40 -4
-70 -10 -70 -5 0 -10 -11 -10 -25 0 -16 6 -25 15 -25 12 0 15 -15 15 -75 0
-60 -3 -75 -15 -75 -8 0 -15 -7 -15 -15 0 -8 9 -15 20 -15 18 0 20 -7 20 -66
0 -63 2 -69 34 -98 56 -53 78 -56 489 -56 359 0 379 1 433 21 39 15 61 30 73
50 9 16 24 29 34 29 10 0 17 8 17 20 0 11 -7 20 -15 20 -12 0 -15 14 -15 70 0
56 3 70 15 70 8 0 15 9 15 20 0 11 -4 20 -10 20 -6 0 -10 32 -10 75 0 41 4 75
8 75 4 0 6 43 4 95 -4 91 -4 95 17 95 14 0 21 6 21 20 0 11 -7 20 -15 20 -12
0 -15 14 -15 70 0 56 3 70 15 70 8 0 15 9 15 20 0 11 -4 20 -10 20 -5 0 -10
21 -10 46 l0 46 38 -30 c20 -17 58 -52 83 -79z"/>
<path d="M430 4480 c-162 -3 -301 -9 -309 -14 -8 -5 -16 -4 -22 5 -7 11 -9 11
-9 -2 0 -9 -12 -24 -26 -34 -25 -16 -26 -20 -20 -76 4 -43 2 -59 -7 -59 -8 0
-8 -3 2 -9 8 -5 16 -32 19 -65 4 -47 2 -56 -12 -56 -23 0 -20 -17 4 -23 14 -4
20 -14 20 -35 0 -16 3 -44 6 -61 6 -28 4 -31 -20 -31 -14 0 -26 -4 -26 -10 0
-5 11 -10 24 -10 26 0 36 -21 36 -82 0 -36 -2 -38 -30 -38 -16 0 -30 -4 -30
-10 0 -5 15 -10 34 -10 l34 0 4 -55 3 -55 -37 0 c-21 0 -38 -4 -38 -10 0 -5
18 -10 40 -10 31 0 40 -4 40 -17 0 -10 3 -28 6 -40 6 -21 3 -23 -42 -25 l-49
-1 44 -4 c28 -3 55 -13 74 -29 16 -13 35 -24 42 -24 8 0 13 -6 11 -12 -1 -7
-1 -10 1 -5 6 10 43 9 43 -1 0 -7 314 -17 535 -17 284 0 731 9 735 15 3 4 15
10 27 14 16 5 23 2 26 -11 4 -15 5 -15 6 3 0 12 12 26 26 32 14 6 25 16 25 22
0 5 23 10 50 10 28 0 50 5 50 10 0 6 -20 10 -45 10 -50 0 -52 4 -39 83 6 35 8
37 48 39 l41 1 -42 6 c-51 7 -46 27 7 34 l35 4 -37 1 c-37 2 -38 3 -38 42 0
39 1 40 35 40 19 0 35 5 35 10 0 6 -13 10 -30 10 -28 0 -30 2 -30 38 0 61 10
82 36 82 13 0 24 5 24 10 0 6 -11 10 -25 10 -23 0 -24 2 -18 53 3 28 9 56 13
61 5 4 6 23 3 42 -6 37 4 107 15 100 4 -2 22 8 40 24 l33 27 -29 6 c-16 3 -44
21 -63 40 -26 26 -49 37 -89 45 -64 13 -734 19 -1170 12z m1283 -125 c-7 -21
-13 -19 -13 6 0 11 4 18 10 14 5 -3 7 -12 3 -20z"/>
<path d="M1658 3693 c12 -2 32 -2 45 0 12 2 2 4 -23 4 -25 0 -35 -2 -22 -4z"/>
<path d="M711 3458 c-27 -14 -51 -37 -64 -61 l-21 -38 27 -717 c31 -790 28
-764 96 -809 34 -23 34 -23 455 -23 l421 0 37 25 c64 44 63 36 93 816 24 630
25 710 12 735 -19 37 -55 70 -90 83 -19 7 -183 11 -476 11 -444 0 -447 0 -490
-22z"/>
</g>
</svg>
