<?xml version="1.0" standalone="no"?>
<!DOCTYPE svg PUBLIC "-//W3C//DTD SVG 20010904//EN"
 "http://www.w3.org/TR/2001/REC-SVG-20010904/DTD/svg10.dtd">
<svg version="1.0" xmlns="http://www.w3.org/2000/svg" style="background-color:#ffffff"
 width="1131.000000pt" height="1057.000000pt" viewBox="0 0 1131.000000 1057.000000"
 preserveAspectRatio="xMidYMid meet">
<metadata>
Created by potrace 1.15, written by Peter Selinger 2001-2017
</metadata>
<g transform="translate(0.000000,1057.000000) scale(0.100000,-0.100000)"
fill="#000000" stroke="none">
<path d="M5680 10359 c-1 -36 64 -131 159 -233 57 -61 112 -115 122 -120 11
-5 19 -12 19 -16 0 -3 29 -37 65 -76 75 -78 125 -146 125 -167 0 -12 -69 -47
-94 -47 -4 0 -22 -12 -39 -27 -144 -129 -171 -175 -169 -288 2 -77 2 -83 25
-205 9 -47 19 -107 22 -135 14 -108 19 -118 96 -168 39 -25 121 -67 182 -93
l112 -48 130 -1 c160 -1 232 -17 280 -60 78 -72 316 -170 473 -196 84 -14 91
-10 99 48 5 38 3 41 -63 102 -38 35 -80 68 -94 74 -14 7 -33 19 -42 28 -27 23
-205 119 -223 119 -8 0 -15 4 -15 9 0 5 -10 11 -22 13 -21 3 -23 8 -20 53 2
27 7 54 11 60 4 5 18 37 31 70 13 33 32 71 42 84 10 13 18 27 18 32 0 4 20 29
45 56 l45 48 88 -23 c51 -13 116 -22 158 -22 l72 0 18 38 c9 20 18 49 20 65 2
37 -53 110 -87 112 -13 1 -82 5 -152 9 -143 8 -148 10 -272 102 -139 104 -180
136 -195 153 -8 10 -23 22 -32 27 -52 30 -167 148 -192 198 -16 31 -32 56 -37
56 -4 0 -10 9 -14 20 -3 11 -35 49 -70 85 -76 78 -197 160 -315 214 -103 46
-310 80 -310 50z"/>
<path d="M5040 10339 c-211 -21 -391 -55 -615 -113 -186 -49 -301 -83 -350
-106 -22 -10 -53 -20 -70 -23 -54 -10 -127 -46 -132 -67 -3 -11 -9 -20 -13
-20 -11 0 -67 -135 -75 -182 -17 -93 -28 -219 -27 -323 1 -239 -1 -233 58
-246 61 -13 157 -39 179 -49 18 -7 105 -28 191 -45 l30 -6 18 103 c9 57 21
123 27 148 5 25 18 97 29 160 11 63 25 131 30 150 30 111 145 195 359 262 92
28 128 37 321 72 47 8 117 22 155 31 39 8 88 17 110 20 74 8 173 37 187 53 19
23 61 159 55 176 -4 10 -34 15 -114 18 -143 7 -171 6 -353 -13z"/>
<path d="M1078 9464 c-2 -1 -52 -5 -113 -9 -151 -9 -205 -13 -310 -24 -49 -5
-116 -12 -148 -15 -137 -11 -276 -153 -306 -310 -11 -57 4 -152 29 -183 33
-42 288 -225 365 -262 11 -5 35 -21 54 -35 19 -14 40 -26 47 -26 7 0 43 -18
82 -40 38 -22 76 -40 84 -40 9 0 21 -7 28 -15 7 -9 15 -13 18 -11 2 3 11 -1
19 -9 8 -8 23 -15 34 -15 10 0 19 -4 19 -9 0 -5 8 -11 18 -14 9 -4 33 -13 52
-21 19 -7 71 -28 115 -45 44 -17 89 -36 100 -41 39 -18 149 -60 158 -60 5 0
36 -11 70 -23 34 -13 123 -43 197 -67 74 -23 144 -46 155 -51 39 -15 345 -94
445 -114 19 -4 39 -10 44 -13 6 -3 19 -7 30 -8 12 -1 57 -12 101 -24 44 -11
109 -27 145 -35 155 -33 307 -66 325 -71 24 -6 50 -10 130 -23 33 -5 92 -16
130 -24 85 -19 177 -36 228 -44 31 -5 42 -1 62 17 14 13 27 21 31 18 6 -7 6
-243 0 -1056 -3 -362 -1 -564 6 -583 17 -50 67 -64 110 -30 13 11 41 52 62 93
21 40 46 82 56 92 18 19 19 18 38 -25 27 -63 45 -120 39 -126 -3 -3 -22 0 -41
7 -30 10 -40 9 -68 -7 -18 -10 -39 -24 -46 -30 -7 -7 -16 -13 -20 -13 -4 0
-31 -22 -60 -48 l-53 -49 12 -64 c7 -35 18 -69 25 -74 8 -7 44 -8 109 -2 111
10 111 10 171 -80 37 -55 62 -67 71 -33 10 36 21 21 27 -37 9 -75 24 -123 40
-123 29 0 107 -94 118 -143 8 -38 6 -44 -54 -136 -35 -53 -66 -98 -69 -101 -3
-3 -9 -14 -13 -25 -3 -11 -20 -37 -38 -58 -31 -35 -35 -37 -63 -27 -29 10 -57
45 -132 169 l-32 53 25 52 c54 111 62 121 85 118 12 -1 51 -22 88 -46 104 -68
105 -69 130 -42 11 12 21 26 21 30 0 10 -57 71 -164 175 -83 81 -83 81 -119
125 -15 19 -29 27 -40 23 -17 -6 -91 -113 -102 -146 -3 -12 -11 -21 -16 -21
-5 0 -9 -6 -9 -14 0 -8 -6 -21 -13 -28 -7 -7 -30 -39 -50 -70 -38 -60 -55 -69
-77 -43 -7 9 -35 34 -62 57 -47 39 -49 40 -68 23 -11 -10 -20 -22 -20 -26 0
-4 -14 -23 -30 -41 -35 -38 -36 -45 -10 -78 11 -14 20 -29 20 -33 0 -4 17 -30
38 -57 43 -57 127 -181 247 -364 84 -128 110 -165 153 -218 l24 -28 56 46 c31
25 93 80 137 122 44 43 111 103 148 136 l67 58 19 -23 c11 -13 30 -49 42 -79
13 -30 42 -91 65 -135 l42 -80 58 0 59 0 0 175 c0 175 0 175 23 178 23 3 61
-30 62 -55 0 -6 9 -28 20 -50 11 -21 35 -80 55 -131 20 -51 40 -102 45 -113 6
-10 15 -28 20 -39 5 -11 10 -26 10 -33 0 -8 6 -27 14 -43 15 -34 69 -165 86
-210 7 -19 25 -39 46 -50 l35 -19 28 31 c26 29 28 38 35 150 3 66 8 129 10
139 2 11 7 56 10 100 9 110 55 313 84 370 20 38 33 66 42 85 3 8 32 28 64 43
72 34 162 44 248 27 80 -15 215 -81 257 -124 37 -39 71 -126 106 -281 14 -60
32 -137 40 -170 18 -71 41 -268 50 -410 12 -213 14 -268 20 -521 4 -143 7
-267 7 -275 5 -86 -3 -115 -42 -157 -21 -23 -44 -42 -50 -42 -6 0 -32 -19 -58
-43 -26 -24 -59 -52 -73 -63 -15 -10 -58 -46 -96 -79 -38 -33 -86 -73 -107
-90 -21 -16 -50 -40 -65 -53 -152 -134 -161 -138 -173 -77 -10 51 -53 254 -68
320 -6 28 -20 92 -31 143 -20 96 -42 152 -60 152 -6 0 -8 9 -4 20 4 12 2 26
-3 33 -6 7 -21 39 -33 72 -12 33 -25 62 -28 65 -6 5 -12 20 -49 120 -9 25 -20
47 -24 48 -5 2 -8 10 -8 18 0 8 -4 22 -9 32 -16 29 -58 123 -101 227 -22 55
-45 109 -49 120 -5 11 -25 61 -46 110 -20 50 -41 99 -45 110 -5 11 -27 59 -49
107 -37 79 -44 88 -74 93 -60 11 -109 -10 -132 -56 -14 -25 -14 -36 -3 -67 6
-20 16 -41 20 -46 4 -6 8 -22 8 -36 0 -14 5 -31 12 -38 7 -7 23 -40 36 -75 13
-34 30 -78 37 -97 7 -19 19 -48 26 -65 7 -16 13 -32 14 -35 1 -3 7 -18 14 -35
6 -16 25 -66 42 -110 17 -44 35 -89 40 -100 5 -11 13 -32 19 -48 5 -15 14 -27
20 -27 6 0 8 -5 5 -11 -6 -9 -2 -25 30 -104 37 -90 115 -295 125 -328 9 -28 9
-50 0 -89 -11 -55 -75 -182 -107 -215 -10 -11 -42 -45 -71 -76 -29 -31 -55
-57 -58 -57 -3 0 -24 -15 -47 -33 -23 -19 -69 -50 -102 -69 -54 -33 -69 -37
-155 -42 -149 -9 -274 -15 -420 -21 -74 -3 -160 -8 -190 -12 -64 -7 -57 -7
-270 1 -223 8 -461 15 -728 21 -123 3 -240 8 -262 11 -25 4 -48 1 -67 -8 -55
-29 -165 -91 -238 -136 -79 -48 -99 -54 -149 -48 -100 11 -175 25 -201 36 -20
8 -144 37 -260 60 -33 7 -96 21 -140 31 -44 10 -100 21 -125 25 -25 3 -54 9
-65 14 -20 9 -100 26 -260 56 -44 9 -87 19 -95 23 -8 4 -36 8 -62 10 -61 3
-102 -21 -142 -83 -27 -42 -17 -140 16 -170 46 -41 57 -47 109 -56 30 -5 130
-25 223 -44 94 -20 171 -34 174 -32 2 2 18 0 35 -5 18 -5 91 -20 162 -33 72
-14 162 -32 200 -40 39 -8 90 -18 115 -21 255 -35 281 -43 535 -165 44 -21
103 -48 130 -60 28 -12 63 -28 79 -36 16 -8 34 -14 39 -14 6 0 18 -7 28 -16
12 -11 23 -13 34 -6 16 8 15 11 -7 33 -14 13 -45 51 -69 83 -24 33 -55 71 -68
85 -39 42 -91 128 -91 151 0 51 27 85 105 133 l78 49 106 0 c58 0 232 -3 386
-7 613 -13 830 -21 880 -30 17 -4 58 -8 93 -10 34 -2 70 -6 80 -9 9 -3 73 -10
142 -17 69 -6 136 -13 150 -15 14 -2 69 -7 123 -13 111 -10 128 -6 311 85 50
24 98 44 109 44 10 0 32 -14 49 -31 27 -27 29 -32 16 -45 -17 -17 -85 -66
-183 -131 -38 -26 -71 -50 -73 -55 -2 -4 -8 -8 -13 -8 -6 0 -27 -14 -48 -30
-20 -17 -67 -49 -104 -73 -96 -61 -301 -201 -323 -221 -10 -9 -75 -54 -143
-99 -290 -192 -306 -204 -295 -230 3 -9 10 -17 15 -17 4 0 19 -10 32 -23 35
-33 62 -54 167 -130 52 -38 97 -73 98 -78 2 -5 8 -9 13 -9 5 0 17 -7 26 -15
20 -18 157 -123 189 -145 35 -25 261 -194 349 -263 28 -21 75 -57 105 -79 30
-23 69 -53 86 -67 17 -14 41 -33 54 -41 12 -8 28 -20 34 -25 6 -6 28 -21 48
-34 21 -12 38 -26 38 -31 0 -4 26 -25 58 -46 31 -21 59 -40 62 -43 3 -3 24
-19 48 -35 23 -16 42 -32 42 -36 0 -3 17 -16 38 -28 22 -12 69 -46 106 -77 37
-30 71 -55 75 -55 4 0 21 -13 37 -30 16 -16 32 -30 36 -30 6 0 150 -106 193
-143 44 -37 191 -137 201 -137 6 0 20 17 33 38 12 20 35 55 51 77 16 22 29 47
30 56 0 15 -95 141 -185 246 -25 28 -45 54 -45 58 0 7 -7 16 -54 71 -20 23
-36 46 -36 52 0 6 -12 21 -27 34 -27 23 -73 82 -73 92 0 3 -12 18 -26 33 -15
15 -57 69 -93 118 -37 50 -74 97 -82 105 -8 8 -35 42 -59 75 -24 33 -87 113
-139 178 -53 66 -103 129 -111 140 -45 65 -147 196 -171 219 -55 51 -50 65 52
164 51 49 109 105 129 124 20 19 69 66 110 104 41 38 116 108 166 155 50 47
147 139 215 203 68 65 177 168 241 230 139 135 314 299 382 359 27 24 84 78
126 119 42 41 132 127 199 190 68 63 154 145 193 183 38 37 71 67 74 67 3 0
45 39 93 87 48 49 119 116 157 151 38 35 137 128 219 206 83 79 170 160 194
182 23 21 75 71 115 109 39 39 131 126 205 195 203 190 264 250 258 256 -6 6
-25 -4 -132 -66 -22 -13 -62 -34 -90 -48 -27 -14 -52 -28 -55 -31 -3 -3 -30
-19 -60 -35 -30 -15 -73 -38 -95 -51 -88 -49 -275 -153 -380 -210 -38 -21 -97
-56 -131 -77 -34 -21 -64 -38 -67 -38 -4 0 -36 -18 -72 -40 -100 -61 -105 -60
-127 30 -25 104 -74 350 -88 440 -6 41 -13 85 -15 98 -4 24 -11 104 -19 222
-7 96 -1 100 80 55 38 -21 80 -46 94 -55 14 -9 44 -22 68 -30 l43 -13 37 41
c20 22 46 58 56 79 11 21 27 47 37 58 9 11 23 32 30 46 8 15 31 56 52 92 44
76 82 169 102 247 7 30 23 91 35 135 13 44 23 96 24 115 l1 35 -51 3 c-59 3
-75 -10 -114 -97 -6 -13 -43 -78 -82 -145 -39 -67 -92 -157 -118 -201 -52 -89
-59 -92 -135 -54 l-42 21 -13 111 c-12 105 -15 140 -24 227 -2 19 -5 42 -7 50
-2 8 1 15 6 14 17 -1 168 -46 195 -57 14 -6 27 -11 30 -12 61 -16 73 -16 81
-4 4 8 6 95 4 194 -2 99 -6 329 -10 510 -3 182 -8 429 -10 550 -3 121 -7 380
-10 575 -3 195 -7 398 -9 451 -2 53 0 102 4 109 6 10 38 11 136 7 223 -11 259
-11 290 4 26 13 29 20 28 58 -1 59 -19 71 -168 111 -104 28 -251 78 -321 110
-11 5 -30 12 -42 15 -13 4 -23 11 -23 16 0 5 -11 9 -25 9 -13 0 -68 20 -121
45 -53 25 -98 45 -102 45 -3 0 -55 24 -116 54 -101 49 -204 97 -311 146 -22
10 -101 47 -175 83 -193 91 -195 92 -230 77 -37 -15 -59 -48 -62 -95 -2 -31 3
-42 28 -64 62 -54 84 -71 90 -71 3 0 41 -26 83 -59 43 -32 91 -66 109 -75 17
-9 37 -24 44 -34 7 -10 27 -27 44 -37 17 -11 64 -42 105 -70 82 -55 91 -60
199 -114 69 -35 107 -51 232 -96 38 -14 48 -23 53 -47 4 -17 3 -34 -2 -39 -4
-4 -37 -4 -73 1 -36 6 -94 12 -130 16 -36 3 -76 7 -90 9 -24 4 -287 19 -345
19 -186 2 -678 -43 -713 -65 -26 -16 -59 -70 -78 -129 -13 -40 -16 -72 -11
-142 3 -49 10 -95 15 -101 5 -7 15 -28 22 -47 8 -19 23 -49 34 -67 25 -38 26
-38 251 1 167 29 443 48 522 36 26 -4 51 -6 54 -4 4 2 43 -3 87 -11 163 -28
182 -39 182 -104 0 -39 -37 -63 -125 -85 -33 -9 -85 -22 -115 -31 -30 -9 -109
-24 -175 -35 -115 -18 -221 -19 -530 -7 l-40 2 -3 -61 c-2 -33 2 -71 8 -85 15
-33 36 -69 46 -79 23 -22 350 -34 509 -19 129 12 300 52 353 81 44 25 115 71
122 79 3 3 30 24 60 46 30 22 67 52 83 66 l27 26 1 -47 c4 -184 -6 -298 -52
-592 -21 -136 -91 -400 -130 -495 -4 -11 -11 -35 -15 -54 -3 -19 -17 -57 -30
-85 -13 -28 -24 -61 -24 -73 0 -12 -4 -24 -9 -27 -4 -3 -20 -40 -36 -83 -25
-73 -54 -141 -93 -222 -15 -31 -24 -37 -82 -51 -36 -8 -84 -25 -108 -38 -59
-31 -74 -28 -108 19 -32 45 -35 47 -96 104 -71 65 -98 84 -195 132 -55 27
-101 43 -112 40 -11 -3 -22 0 -23 5 -8 23 -260 40 -334 22 -49 -11 -168 -54
-191 -70 -12 -8 -29 -14 -36 -14 -8 0 -22 -9 -32 -20 -10 -11 -23 -20 -30 -20
-20 0 -155 -142 -186 -195 -16 -27 -45 -80 -64 -116 -33 -64 -36 -67 -78 -73
-137 -21 -279 59 -291 163 -10 85 -20 235 -31 511 -14 312 -12 303 -56 326
-16 8 -29 19 -29 25 0 5 -10 13 -21 17 -32 12 -71 140 -66 213 3 31 12 68 21
81 15 23 25 26 104 31 117 8 200 31 302 82 151 76 205 112 273 183 17 17 37
32 44 32 7 0 13 6 13 14 0 7 15 33 34 57 33 44 56 83 147 255 62 116 66 168
18 208 -37 31 -39 31 -87 7 -40 -20 -62 -52 -82 -116 -18 -60 -51 -123 -103
-201 -73 -108 -87 -120 -166 -138 -132 -30 -418 -17 -526 24 -66 25 -110 97
-102 167 2 24 6 45 8 46 2 2 51 21 109 44 103 41 247 83 352 104 29 6 64 13
78 16 55 11 168 18 219 13 29 -3 68 -4 87 -2 30 4 35 9 46 46 6 22 15 46 18
51 12 18 12 134 -1 172 -41 130 -100 185 -224 208 -42 8 -106 15 -143 16 -37
1 -70 7 -74 13 -6 7 -10 8 -15 1 -5 -6 -62 -12 -138 -13 -127 -3 -253 -18
-405 -48 -41 -9 -86 -18 -100 -20 -14 -3 -45 -11 -70 -18 -25 -8 -58 -17 -75
-21 -16 -4 -33 -12 -37 -18 -6 -9 -8 -8 -8 2 0 7 28 39 63 71 55 50 84 76 187
164 14 11 41 33 60 47 19 15 51 41 70 58 19 17 40 31 47 31 7 0 16 6 20 13 4
7 21 21 36 30 16 10 36 25 45 33 33 28 114 86 150 105 45 25 65 37 117 70 54
36 254 130 340 162 102 37 105 38 105 49 0 12 -62 38 -74 31 -4 -3 -11 -1 -15
4 -6 9 -271 88 -349 104 -23 5 -50 13 -60 18 -10 5 -65 21 -123 36 -57 14
-149 39 -204 56 -155 46 -169 50 -185 53 -8 2 -22 6 -30 9 -25 10 -182 49
-235 59 -27 5 -62 14 -77 19 -15 6 -67 19 -115 29 -202 42 -324 69 -332 74 -4
3 -23 8 -42 10 -19 3 -97 17 -174 31 -125 24 -193 35 -400 65 -33 5 -105 14
-160 19 -55 6 -131 16 -170 21 -173 25 -472 42 -772 45 -178 1 -324 1 -325 -1z
m3572 -2468 c0 -3 -4 -8 -10 -11 -5 -3 -10 -1 -10 4 0 6 5 11 10 11 6 0 10 -2
10 -4z"/>
<path d="M9137 9464 c-2 -2 -77 -6 -168 -9 -258 -8 -415 -18 -604 -35 -55 -5
-134 -12 -175 -15 -41 -3 -122 -11 -180 -16 -58 -6 -127 -13 -155 -15 -47 -5
-225 -29 -290 -40 -16 -3 -54 -8 -84 -12 -30 -4 -56 -12 -58 -18 -4 -11 52
-26 242 -63 139 -28 269 -49 340 -56 33 -3 69 -8 81 -10 74 -16 606 -50 919
-60 391 -12 500 -16 615 -25 69 -5 163 -12 210 -15 216 -14 304 -28 345 -54
92 -59 157 -166 176 -292 11 -69 10 -82 -10 -147 -28 -94 -50 -116 -138 -142
-138 -40 -455 -77 -623 -73 -74 1 -410 16 -440 19 -19 1 -80 6 -135 9 -55 4
-116 8 -135 11 -19 2 -96 8 -170 14 -74 5 -152 12 -174 16 -47 7 -235 9 -242
1 -5 -5 67 -159 85 -182 5 -5 32 -55 60 -110 66 -127 65 -125 81 -155 23 -42
91 -173 113 -215 11 -22 24 -47 28 -55 5 -8 29 -57 55 -107 26 -51 53 -93 60
-93 12 0 48 68 60 114 3 14 10 29 15 32 5 3 9 16 9 29 0 13 4 26 8 29 4 3 14
28 22 56 8 28 18 53 22 56 4 3 8 16 8 29 0 13 4 26 9 30 5 3 15 22 21 43 7 20
19 54 29 74 13 32 20 37 41 33 27 -5 101 -11 250 -20 301 -20 805 4 970 46 19
4 87 20 150 34 63 14 151 37 195 51 131 41 324 126 359 159 53 48 102 117 117
160 7 22 18 47 24 55 25 33 55 201 54 300 -1 84 -34 233 -67 296 -5 10 -15 31
-22 45 -7 15 -35 52 -64 82 -70 75 -149 103 -316 112 -30 2 -116 12 -190 23
-74 12 -173 23 -220 26 -47 3 -134 10 -195 16 -168 15 -500 29 -690 30 -93 0
-182 2 -197 4 -15 2 -29 2 -31 0z"/>
<path d="M7236 8938 c-26 -14 -37 -54 -25 -85 17 -45 115 -129 242 -208 18
-10 34 -23 35 -27 2 -4 10 -8 17 -8 7 0 42 -16 77 -36 96 -54 256 -108 306
-102 22 2 28 9 30 34 2 23 -5 38 -30 65 -30 31 -110 89 -123 89 -3 0 -18 11
-33 25 -15 14 -31 25 -37 25 -5 0 -22 10 -37 23 -14 13 -44 32 -65 43 -21 10
-40 21 -43 24 -10 10 -46 30 -100 58 -30 15 -58 30 -61 35 -10 14 -84 48 -110
51 -15 2 -34 -1 -43 -6z"/>
<path d="M7577 8413 c-18 -5 -47 -51 -47 -76 0 -32 66 -135 117 -184 56 -55
152 -123 172 -123 6 0 11 -3 11 -8 0 -7 14 -14 115 -53 33 -13 65 -26 70 -30
14 -9 146 -41 172 -41 23 -1 56 27 66 55 4 10 -1 33 -11 51 -19 36 -122 169
-135 174 -4 2 -13 9 -20 16 -22 22 -164 116 -176 116 -6 0 -11 4 -11 10 0 5
-12 13 -27 16 -16 4 -37 13 -48 19 -11 7 -44 18 -73 25 -28 7 -54 16 -57 20
-3 5 -18 8 -33 8 -15 -1 -36 1 -47 4 -11 3 -28 3 -38 1z"/>
<path d="M5271 7318 c-8 -20 -55 -139 -83 -208 -6 -14 -14 -33 -19 -42 -5 -10
-9 -24 -9 -32 0 -7 -7 -27 -15 -42 -8 -16 -15 -39 -15 -52 0 -20 2 -22 23 -11
12 7 24 15 27 20 11 16 83 69 95 69 7 0 28 -22 46 -49 50 -73 101 -92 119 -45
12 31 -4 179 -21 200 -6 7 -8 18 -4 24 7 11 -71 140 -84 140 -3 0 -11 10 -16
22 -14 31 -33 34 -44 6z"/>
<path d="M8456 7270 c-34 -11 -82 -54 -102 -92 -17 -32 -18 -98 -3 -147 11
-37 70 -162 79 -171 3 -3 16 -20 29 -38 28 -40 66 -82 74 -82 3 0 17 -10 30
-22 106 -101 264 -192 377 -218 30 -7 65 -16 78 -21 13 -5 48 -9 78 -9 48 0
58 4 84 30 32 33 46 82 35 129 -11 51 -74 188 -108 237 -18 25 -38 57 -45 70
-23 43 -145 161 -212 207 -178 120 -293 157 -394 127z"/>
<path d="M5053 6652 c-23 -10 -45 -21 -49 -25 -4 -4 -19 -7 -34 -7 -14 0 -31
-5 -36 -10 -6 -6 -40 -13 -75 -15 -67 -5 -91 -22 -105 -72 -8 -28 13 -65 34
-61 16 3 92 -67 92 -86 0 -16 62 -86 76 -86 19 0 17 19 -7 55 -34 54 -48 95
-31 95 4 0 24 -11 44 -25 20 -13 53 -29 75 -34 21 -6 63 -17 93 -26 44 -13 85
-15 213 -11 l157 5 73 37 c39 21 83 47 96 58 22 19 24 19 18 3 -4 -10 -7 -24
-7 -30 0 -7 -18 -32 -40 -57 -44 -49 -50 -70 -21 -70 25 0 90 73 126 142 17
32 35 58 41 58 28 0 36 28 19 64 -24 50 -34 55 -107 61 -36 2 -103 16 -149 31
-74 23 -92 25 -159 18 -79 -8 -98 -8 -220 0 -57 4 -85 1 -117 -12z m227 -116
c30 1 78 5 107 9 55 8 128 1 153 -15 24 -15 -24 -57 -86 -75 -60 -17 -269 -26
-297 -13 -10 5 -26 11 -35 13 -52 10 -104 47 -88 62 13 13 132 31 161 25 17
-4 55 -6 85 -6z"/>
<path d="M5525 6271 c-42 -40 -283 -63 -373 -36 -25 8 -49 12 -54 9 -13 -8 -9
-41 7 -54 8 -7 15 -21 15 -32 0 -26 26 -33 62 -17 23 11 49 13 123 5 118 -11
158 -4 173 29 7 14 22 30 34 35 39 16 61 38 55 55 -7 17 -28 20 -42 6z"/>
<path d="M8680 5511 c-81 -26 -189 -128 -242 -226 -37 -70 -58 -177 -53 -275
4 -64 22 -126 65 -225 12 -27 31 -70 42 -95 67 -154 161 -330 181 -338 4 -2 7
-10 7 -17 0 -7 15 -33 33 -57 18 -24 54 -75 80 -114 26 -39 54 -77 62 -84 8
-7 15 -16 15 -21 0 -10 32 -47 79 -92 19 -17 59 -56 88 -85 30 -29 66 -60 81
-70 15 -9 79 -60 142 -112 145 -121 160 -133 174 -145 6 -5 45 -37 86 -69 41
-33 77 -63 80 -67 7 -9 50 -22 50 -15 0 3 -16 41 -36 83 -19 43 -41 92 -48
108 -47 108 -83 190 -113 255 -19 41 -38 84 -43 95 -4 11 -19 45 -33 75 -14
30 -37 84 -52 120 -16 36 -41 93 -56 128 -16 34 -29 66 -29 70 0 5 -9 26 -19
48 -10 21 -27 63 -36 92 -10 28 -21 52 -26 52 -5 0 -6 6 -3 14 3 8 0 25 -7 38
-7 13 -21 50 -30 83 -9 33 -24 87 -34 120 -26 92 -52 224 -45 234 5 10 121 32
255 49 66 9 124 8 377 -3 73 -3 110 0 114 7 13 21 -199 207 -301 264 -103 57
-179 94 -193 94 -10 0 -23 5 -29 11 -6 6 -26 14 -44 19 -19 5 -61 16 -94 25
-33 9 -73 18 -90 21 -61 9 -331 13 -355 5z"/>
<path d="M7954 4398 c-38 -45 -95 -114 -126 -153 -31 -38 -70 -86 -87 -105
-34 -40 -34 -39 -81 -100 -19 -25 -42 -54 -52 -65 -17 -21 -139 -167 -243
-293 -33 -40 -71 -87 -85 -106 -21 -27 -129 -159 -200 -242 -9 -12 -60 -75
-113 -140 -182 -226 -209 -259 -218 -262 -5 -2 -9 -8 -9 -14 0 -6 -28 -43 -62
-83 -78 -89 -80 -91 -207 -250 -58 -72 -112 -138 -120 -147 -20 -22 -26 -29
-87 -108 -27 -36 -65 -81 -84 -101 -109 -111 -183 -242 -216 -379 -39 -163 11
-365 114 -463 60 -56 315 -316 424 -430 48 -51 92 -96 97 -102 186 -187 230
-228 248 -235 36 -15 89 7 128 53 20 23 38 51 41 63 5 21 -16 66 -41 89 -11
10 -177 220 -250 315 -22 29 -52 67 -67 85 -16 18 -28 37 -28 42 0 5 -8 15
-17 24 -10 8 -27 28 -38 44 -11 15 -34 44 -50 64 -17 20 -43 53 -59 74 -16 21
-41 52 -57 68 -52 53 -88 195 -85 328 2 47 9 100 16 116 38 89 66 136 115 195
30 36 58 71 61 78 4 8 18 25 30 38 13 12 24 30 24 38 0 9 8 20 19 25 10 6 48
52 84 103 61 86 123 164 181 228 13 14 35 45 51 70 15 25 49 70 74 100 26 30
59 71 74 92 15 20 35 44 44 54 18 18 27 30 77 105 16 24 35 48 42 52 8 4 14
12 14 18 0 5 14 23 30 39 17 16 30 32 30 35 0 6 134 182 163 215 11 13 30 36
100 125 4 5 25 33 45 60 46 62 152 196 200 254 21 24 54 69 75 100 21 30 42
58 46 61 4 3 25 30 46 60 21 30 49 65 62 77 12 12 23 25 23 28 0 3 4 11 10 18
80 98 82 100 75 136 -8 44 -40 79 -81 87 -28 5 -35 0 -100 -78z"/>
</g>
</svg>
