<svg version="1.0" xmlns="http://www.w3.org/2000/svg"
 width="300.000000pt" height="236.000000pt" viewBox="0 0 300.000000 236.000000"
 preserveAspectRatio="xMidYMid meet">
<style>
    @media (prefers-color-scheme: light) {
      .background { fill: black; }
      .foreground { fill: white; }
    }
    @media (prefers-color-scheme: dark) {
      .background { fill: white; }
      .foreground { fill: black; }
    }
  </style>
<rect class="background" width="300" height="236" rx="90" />
<g class="foreground" transform="translate(0.000000,236.000000) scale(0.100000,-0.100000)"
stroke="none">
<path d="M930 1987 l-184 -279 -47 53 c-31 35 -51 51 -57 44 -25 -26 -462
-608 -459 -611 2 -2 48 4 103 14 l99 18 125 217 c69 119 128 217 132 217 4 0
24 -45 45 -100 21 -55 41 -100 45 -100 5 0 224 342 338 528 17 28 35 52 38 52
4 0 59 -116 123 -257 64 -142 121 -259 127 -261 5 -1 29 46 52 105 22 59 46
121 52 136 6 15 14 24 19 20 4 -4 71 -143 149 -308 78 -165 143 -301 145 -303
2 -2 29 31 61 73 31 41 60 74 65 73 4 -2 85 -100 179 -218 94 -118 175 -219
179 -223 5 -4 27 24 50 62 23 39 43 71 44 71 1 0 94 -36 207 -80 l204 -80 78
17 c43 9 75 20 71 24 -8 7 -492 236 -561 266 -32 13 -33 13 -50 -17 -9 -17
-27 -47 -38 -67 l-21 -36 -174 246 c-96 135 -177 246 -180 247 -4 0 -22 -22
-40 -50 -19 -27 -36 -49 -39 -49 -3 0 -79 130 -170 289 -91 159 -168 289 -172
290 -4 0 -28 -34 -53 -75 -26 -41 -50 -75 -54 -75 -3 0 -57 90 -120 200 -62
110 -116 202 -120 204 -3 2 -89 -123 -191 -277z"/>
<path d="M1404 1542 c-34 -22 -64 -76 -64 -117 0 -68 69 -135 140 -135 118 0
177 148 92 233 -40 40 -120 49 -168 19z m104 -84 c17 -17 15 -53 -3 -68 -20
-17 -62 -5 -70 20 -14 44 41 80 73 48z"/>
<path d="M1259 1249 c-35 -23 -82 -58 -104 -77 -88 -79 -185 -222 -185 -273 0
-56 77 -139 193 -208 l37 -23 0 -129 c0 -116 2 -131 20 -149 23 -23 30 -24 53
-7 16 11 17 31 15 177 l-3 164 -57 34 -58 34 18 32 c21 38 196 216 212 216 7
0 40 -24 75 -52 86 -72 164 -113 197 -105 55 14 42 64 -25 98 -76 39 -157 110
-207 181 -28 39 -50 76 -50 83 0 16 -33 45 -52 45 -8 0 -44 -19 -79 -41z m91
-126 c0 -7 -4 -13 -8 -13 -18 0 -170 -151 -207 -204 -21 -31 -39 -56 -41 -56
-1 0 -9 11 -18 25 -15 22 -15 28 -2 53 33 64 111 154 174 201 l67 51 17 -23
c10 -12 18 -28 18 -34z"/>
<path d="M532 1048 c-15 -15 -15 -51 0 -66 17 -17 319 -17 336 0 15 15 15 51
0 66 -17 17 -319 17 -336 0z"/>
<path d="M575 856 c-13 -19 -14 -29 -5 -45 10 -20 19 -21 173 -21 167 0 187 4
187 40 0 9 -8 24 -18 33 -16 14 -43 17 -170 17 -149 0 -152 0 -167 -24z"/>
<path d="M1568 727 c-98 -37 -150 -83 -199 -177 -34 -67 -34 -185 2 -260 32
-66 87 -123 154 -158 42 -22 63 -26 135 -26 70 0 93 4 130 23 65 35 97 60 126
103 15 21 30 35 35 33 8 -6 709 181 719 191 3 3 -11 3 -30 0 -171 -28 -630
-96 -650 -96 -4 0 -10 33 -13 74 -9 124 -64 210 -168 266 -73 39 -177 50 -241
27z m211 -114 c27 -17 58 -48 76 -77 63 -102 30 -241 -71 -306 -202 -128 -439
101 -318 307 63 108 204 143 313 76z"/>
<path d="M1638 459 c-27 -15 -24 -67 5 -78 49 -20 88 43 45 73 -26 19 -27 19
-50 5z"/>
<path d="M345 674 c-132 -18 -247 -35 -255 -38 -8 -2 100 -4 241 -5 l257 -1 6
24 c3 13 9 31 12 40 7 20 30 21 -261 -20z"/>
<path d="M622 678 c-17 -17 -15 -44 4 -62 13 -13 45 -16 189 -16 l173 0 31
-41 c68 -93 61 -203 -16 -289 -72 -81 -176 -100 -271 -51 -49 25 -77 56 -103
115 -18 42 -20 60 -15 126 6 62 4 79 -8 89 -43 36 -86 -28 -86 -126 0 -126 71
-238 185 -293 40 -19 67 -24 130 -24 101 -1 165 26 230 95 66 71 89 127 89
219 0 92 -31 167 -94 229 l-42 41 -192 0 c-136 0 -196 -4 -204 -12z"/>
<path d="M822 463 c-18 -7 -33 -39 -26 -58 10 -25 41 -37 64 -25 27 14 27 65
1 80 -11 5 -21 10 -23 9 -2 0 -9 -3 -16 -6z"/>
</g>
</svg>
